<svg
    xmlns="http://www.w3.org/2000/svg"
    xmlns:xlink="http://www.w3.org/1999/xlink"
    width="24px"
    height="24px"
    viewBox="0 0 24 24"
    fill="#131519"
    fill-opacity="0.2"
    version="1.1"
>
    <g id="surface1">
    <path
        d="M 8.675781 2.160156 C 8.53125 2.21875 8.363281 2.375 8.292969 2.507812 C 8.195312 2.664062 8.160156 5.746094 8.160156 12.238281 L 8.160156 21.730469 L 8.460938 22.019531 C 8.808594 22.378906 9.226562 22.402344 9.613281 22.09375 L 9.898438 21.863281 L 9.9375 12.515625 C 9.960938 6.300781 9.9375 3.035156 9.851562 2.746094 C 9.769531 2.472656 9.613281 2.269531 9.421875 2.183594 C 9.058594 2.015625 9.035156 2.015625 8.675781 2.160156 Z M 8.675781 2.160156 "
    />
    <path
        d="M 14.4375 2.183594 C 14.292969 2.257812 14.125 2.449219 14.050781 2.628906 C 13.957031 2.84375 13.921875 5.785156 13.945312 12.394531 L 13.980469 21.863281 L 14.269531 22.09375 C 14.652344 22.402344 15.070312 22.378906 15.433594 22.019531 L 15.71875 21.730469 L 15.695312 12.132812 C 15.660156 1.679688 15.695312 2.257812 15 2.113281 C 14.832031 2.074219 14.578125 2.113281 14.4375 2.183594 Z M 14.4375 2.183594 "
    />
    <path
        d="M 5.796875 5.039062 C 5.652344 5.101562 5.484375 5.257812 5.410156 5.386719 C 5.316406 5.542969 5.28125 7.789062 5.28125 12.238281 L 5.28125 18.851562 L 5.578125 19.140625 C 5.929688 19.5 6.347656 19.523438 6.695312 19.199219 L 6.960938 18.949219 L 6.960938 5.410156 L 6.648438 5.171875 C 6.300781 4.894531 6.191406 4.882812 5.796875 5.039062 Z M 5.796875 5.039062 "
    />
    <path
        d="M 17.398438 6.515625 C 16.8125 6.816406 16.800781 6.925781 16.800781 12.214844 C 16.800781 16.332031 16.824219 17.230469 16.980469 17.507812 C 17.269531 18.085938 17.84375 18.167969 18.300781 17.699219 L 18.601562 17.410156 L 18.601562 12.253906 C 18.601562 9.421875 18.5625 7.007812 18.527344 6.898438 C 18.480469 6.804688 18.300781 6.636719 18.109375 6.539062 C 17.710938 6.324219 17.773438 6.324219 17.398438 6.515625 Z M 17.398438 6.515625 "
    />
    <path
        d="M 11.628906 7.222656 C 11.0625 7.414062 11.039062 7.632812 11.039062 12.3125 L 11.039062 16.691406 L 11.351562 17.003906 C 11.59375 17.242188 11.722656 17.292969 12.035156 17.230469 C 12.804688 17.074219 12.78125 17.230469 12.816406 12.3125 C 12.851562 7.992188 12.839844 7.835938 12.613281 7.535156 C 12.324219 7.164062 12.046875 7.078125 11.628906 7.222656 Z M 11.628906 7.222656 "
    />
    <path
        d="M 2.640625 9 C 2.410156 9.226562 2.398438 9.394531 2.398438 12.167969 C 2.398438 14.832031 2.425781 15.121094 2.617188 15.371094 C 2.890625 15.707031 3.492188 15.730469 3.839844 15.421875 C 4.066406 15.214844 4.078125 15.058594 4.078125 12.214844 C 4.078125 9.394531 4.066406 9.226562 3.839844 9 C 3.707031 8.867188 3.445312 8.761719 3.238281 8.761719 C 3.035156 8.761719 2.773438 8.867188 2.640625 9 Z M 2.640625 9 "
    />
    <path
        d="M 20.039062 9.121094 C 19.8125 9.347656 19.800781 9.515625 19.800781 12.214844 C 19.800781 14.84375 19.824219 15.097656 20.015625 15.277344 C 20.328125 15.5625 20.941406 15.527344 21.238281 15.214844 C 21.46875 14.964844 21.480469 14.808594 21.480469 12.226562 C 21.480469 9.660156 21.46875 9.492188 21.226562 9.191406 C 20.929688 8.808594 20.386719 8.773438 20.039062 9.121094 Z M 20.039062 9.121094 "
    />
    </g>
</svg>